<?xml version="1.0" standalone="no"?>
<!DOCTYPE svg PUBLIC "-//W3C//DTD SVG 20010904//EN"
 "http://www.w3.org/TR/2001/REC-SVG-20010904/DTD/svg10.dtd">
<svg version="1.0" xmlns="http://www.w3.org/2000/svg"
 width="500.000000pt" height="500.000000pt" viewBox="0 0 500.000000 500.000000"
 preserveAspectRatio="xMidYMid meet">
<metadata>
Created by potrace 1.14, written by Peter Selinger 2001-2017
</metadata>
<g transform="translate(0.000000,500.000000) scale(0.100000,-0.100000)"
fill="#000000" stroke="none">
<path d="M1787 3464 c-4 -4 -7 -339 -7 -745 0 -748 -4 -860 -39 -1030 l-18
-89 80 0 80 0 -7 33 c-50 235 -57 386 -54 1080 l3 599 585 -856 585 -856 117
0 118 0 0 678 c0 678 7 869 36 1037 8 50 18 105 21 123 l6 32 -77 0 c-42 0
-76 -4 -76 -9 0 -5 9 -62 20 -127 32 -189 41 -429 38 -1044 l-3 -575 -601 875
-600 875 -100 3 c-55 1 -103 0 -107 -4z"/>
</g>
</svg>
